do i have a <yes></yes><?xml version="1.0" encoding="UTF-8"?>
<svg id="Layer_1" data-name="Layer 1" xmlns="http://www.w3.org/2000/svg" xmlns:xlink="http://www.w3.org/1999/xlink" viewBox="0 0 844.35 839.65">
  <defs>
    <style>
      .cls-1 {
        clip-path: url(#clippath-4);
      }

      .cls-2 {
        fill: url(#linear-gradient-2);
      }

      .cls-3 {
        fill: none;
      }

      .cls-4 {
        fill: url(#linear-gradient-4);
      }

      .cls-5 {
        fill: url(#linear-gradient-3);
      }

      .cls-6 {
        clip-path: url(#clippath-1);
      }

      .cls-7 {
        fill: url(#linear-gradient-5);
      }

      .cls-8 {
        clip-path: url(#clippath-5);
      }

      .cls-9 {
        clip-path: url(#clippath-3);
      }

      .cls-10 {
        fill: url(#linear-gradient-6);
      }

      .cls-11 {
        clip-path: url(#clippath-2);
      }

      .cls-12 {
        fill: url(#linear-gradient);
      }

      .cls-13 {
        clip-path: url(#clippath);
      }
    </style>
    <clipPath id="clippath">
      <path class="cls-3" d="M234.66,2.03c-64.89.19-120.1,23.02-165.61,68.51C22.83,116.76-.17,172.35,0,237.25c.19,64.92,23.23,120.31,69.07,166.18l19.69,19.68,109.29-109.29-21.92-21.92c-16.62-16.65-24.94-36.64-24.94-59.93s8.34-43.29,24.96-59.91c16.64-16.65,36.71-25.07,60.18-25.23,23.5-.19,43.56,8.03,60.22,24.69l201.03,201.03-56.62,56.62h217.84v-217.85l-58.6,58.6-198.81-198.83C355.35,25.05,300.04,2.03,235.47,2.03h-.8,0Z"/>
    </clipPath>
    <linearGradient id="linear-gradient" x1="-76.32" y1="919.13" x2="-71.49" y2="919.13" gradientTransform="translate(10424.59 125762.97) scale(136.59 -136.59)" gradientUnits="userSpaceOnUse">
      <stop offset="0" stop-color="#09aace"/>
      <stop offset="1" stop-color="#006980"/>
    </linearGradient>
    <clipPath id="clippath-1">
      <path class="cls-3" d="M185.56,412.48v217.85l58.59-58.59,198.82,198.82c46.22,46.24,101.79,69.28,166.72,69.08,64.89-.19,120.1-23.03,165.6-68.51,46.22-46.24,69.24-101.81,69.06-166.72-.19-64.92-23.23-120.29-69.07-166.18l-19.68-19.68-109.29,109.28,21.92,21.92c16.63,16.66,24.95,36.64,24.95,59.93s-8.34,43.28-24.96,59.91c-16.64,16.64-36.71,25.07-60.18,25.23-23.51.19-43.57-8.02-60.22-24.69l-201.04-201.03,56.63-56.63h-217.84Z"/>
    </clipPath>
    <linearGradient id="linear-gradient-2" x1="-75.24" y1="916.74" x2="-70.42" y2="916.74" gradientTransform="translate(10463.01 125847.48) scale(136.59 -136.59)" xlink:href="#linear-gradient"/>
    <clipPath id="clippath-2">
      <path class="cls-3" d="M606.87,0c-64.92.19-120.29,23.23-166.18,69.07l-19.68,19.68,109.28,109.3,21.93-21.92c16.64-16.62,36.64-24.95,59.93-24.95s43.29,8.35,59.91,24.96c16.64,16.64,25.07,36.72,25.24,60.17.19,23.52-8.03,43.57-24.69,60.24l-201.04,201.02-56.63-56.62v217.85h217.85l-58.59-58.59,198.82-198.83c46.25-46.22,69.28-101.79,69.08-166.7-.19-64.9-23.03-120.11-68.51-165.62C727.54,23.01,672.19,0,607.6,0h-.73,0Z"/>
    </clipPath>
    <linearGradient id="linear-gradient-3" x1="-72.33" y1="917.18" x2="-67.51" y2="917.18" gradientTransform="translate(6820.88 81560.57) scale(88.57 -88.57)" gradientUnits="userSpaceOnUse">
      <stop offset="0" stop-color="#414142"/>
      <stop offset="1" stop-color="#808285"/>
    </linearGradient>
    <clipPath id="clippath-3">
      <path class="cls-3" d="M211.32,178.85l58.58,58.59-198.82,198.83C24.85,482.48,1.82,538.05,2.01,602.97c.19,64.9,23.02,120.1,68.51,165.62,46.22,46.22,101.8,69.23,166.72,69.06,64.92-.19,120.29-23.23,166.18-69.07l19.69-19.69-109.29-109.29-21.92,21.92c-16.65,16.62-36.64,24.95-59.93,24.95s-43.29-8.34-59.91-24.96c-16.64-16.64-25.07-36.71-25.25-60.17-.19-23.52,8.04-43.57,24.7-60.24l201.03-201.02,56.63,56.62v-217.84h-217.85Z"/>
    </clipPath>
    <linearGradient id="linear-gradient-4" x1="-76.03" y1="915.58" x2="-71.2" y2="915.58" gradientTransform="translate(6735.26 81597.65) scale(88.57 -88.57)" xlink:href="#linear-gradient-3"/>
    <clipPath id="clippath-4">
      <polygon class="cls-3" points="600.2 269.93 576.45 246.17 468.18 343.16 497.58 372.56 440.95 429.18 658.79 429.18 658.79 211.33 600.2 269.93"/>
    </clipPath>
    <linearGradient id="linear-gradient-5" x1="-76.32" y1="918.36" x2="-71.49" y2="918.36" xlink:href="#linear-gradient"/>
    <clipPath id="clippath-5">
      <polygon class="cls-3" points="185.56 412.48 185.56 630.34 244.15 571.75 265.66 593.26 360.57 482.91 346.77 469.11 403.4 412.48 185.56 412.48"/>
    </clipPath>
    <linearGradient id="linear-gradient-6" x1="-75.24" y1="917.51" x2="-70.42" y2="917.51" gradientTransform="translate(10463.01 125847.48) scale(136.59 -136.59)" xlink:href="#linear-gradient"/>
  </defs>
  <g id="g306">
    <g class="cls-13">
      <g id="g308">
        <g id="g314">
          <g id="g316">
            <path id="path324" class="cls-12" d="M234.66,2.03c-64.89.19-120.1,23.02-165.61,68.51h0C22.83,116.76-.17,172.35,0,237.25H0c.19,64.92,23.23,120.31,69.07,166.18h0l19.69,19.68,109.29-109.29-21.92-21.92c-16.62-16.65-24.94-36.64-24.94-59.93h0c0-23.31,8.34-43.29,24.96-59.91h0c16.64-16.65,36.71-25.07,60.18-25.23h0c23.5-.19,43.56,8.03,60.22,24.69h0l201.03,201.03-56.62,56.62h217.84v-217.85l-58.6,58.6-198.81-198.83C355.35,25.05,300.04,2.03,235.47,2.03h-.8"/>
          </g>
        </g>
      </g>
    </g>
  </g>
  <g id="g326">
    <g class="cls-6">
      <g id="g328">
        <g id="g334">
          <g id="g336">
            <path id="path344" class="cls-2" d="M185.56,412.48v217.85l58.59-58.59,198.82,198.82c46.22,46.24,101.79,69.28,166.72,69.08h0c64.89-.19,120.1-23.03,165.6-68.51h0c46.22-46.24,69.24-101.81,69.06-166.72h0c-.19-64.92-23.23-120.29-69.07-166.18h0l-19.68-19.68-109.29,109.28,21.92,21.92c16.63,16.66,24.95,36.64,24.95,59.93h0c0,23.31-8.34,43.28-24.96,59.91h0c-16.64,16.64-36.71,25.07-60.18,25.23h0c-23.51.19-43.57-8.02-60.22-24.69h0l-201.04-201.03,56.63-56.63h-217.84Z"/>
          </g>
        </g>
      </g>
    </g>
  </g>
  <g id="g346">
    <g class="cls-11">
      <g id="g348">
        <g id="g354">
          <g id="g356">
            <path id="path364" class="cls-5" d="M606.87,0c-64.92.19-120.29,23.23-166.18,69.07h0l-19.68,19.68,109.28,109.3,21.93-21.92c16.64-16.62,36.64-24.95,59.93-24.95h0c23.3,0,43.29,8.35,59.91,24.96h0c16.64,16.64,25.07,36.72,25.24,60.17h0c.19,23.52-8.03,43.57-24.69,60.24h0l-201.04,201.02-56.63-56.62v217.85h217.85l-58.59-58.59,198.82-198.83c46.25-46.22,69.28-101.79,69.08-166.7h0c-.19-64.9-23.03-120.11-68.51-165.62h0C727.54,23.01,672.19,0,607.6,0h-.73"/>
          </g>
        </g>
      </g>
    </g>
  </g>
  <g id="g366">
    <g class="cls-9">
      <g id="g368">
        <g id="g374">
          <g id="g376">
            <path id="path384" class="cls-4" d="M211.32,178.84l58.58,58.59-198.82,198.83C24.85,482.48,1.82,538.05,2.01,602.97h0c.19,64.9,23.02,120.1,68.51,165.62h0c46.22,46.22,101.8,69.23,166.72,69.06h0c64.92-.19,120.29-23.23,166.18-69.07h0l19.69-19.69-109.29-109.29-21.92,21.92c-16.65,16.62-36.64,24.94-59.93,24.94h0c-23.3,0-43.29-8.34-59.91-24.96h0c-16.64-16.64-25.07-36.71-25.25-60.17h0c-.19-23.52,8.04-43.57,24.7-60.24h0l201.03-201.02,56.63,56.62v-217.84h-217.85Z"/>
          </g>
        </g>
      </g>
    </g>
  </g>
  <g id="g386">
    <g class="cls-1">
      <g id="g388">
        <g id="g394">
          <g id="g396">
            <path id="path404" class="cls-7" d="M600.2,269.93l-23.75-23.75-108.27,96.99,29.39,29.39-56.62,56.62h217.84v-217.85l-58.6,58.6Z"/>
          </g>
        </g>
      </g>
    </g>
  </g>
  <g id="g406">
    <g class="cls-8">
      <g id="g408">
        <g id="g414">
          <g id="g416">
            <path id="path424" class="cls-10" d="M185.56,412.48v217.85l58.59-58.59,21.51,21.52,94.91-110.36-13.8-13.79,56.63-56.63h-217.84Z"/>
          </g>
        </g>
      </g>
    </g>
  </g>
</svg>