<?xml version="1.0" encoding="UTF-8" standalone="no"?>
<svg
   xmlns:dc="http://purl.org/dc/elements/1.1/"
   xmlns:cc="http://creativecommons.org/ns#"
   xmlns:rdf="http://www.w3.org/1999/02/22-rdf-syntax-ns#"
   xmlns:svg="http://www.w3.org/2000/svg"
   xmlns="http://www.w3.org/2000/svg"
   xmlns:sodipodi="http://sodipodi.sourceforge.net/DTD/sodipodi-0.dtd"
   xmlns:inkscape="http://www.inkscape.org/namespaces/inkscape"
   viewBox="0 0 910.70667 210.52001"
   height="210.52002"
   width="910.70667"
   xml:space="preserve"
   id="svg2"
   version="1.1"
   inkscape:version="0.91 r13725"
   sodipodi:docname="provolve_logo_tagless.svg"><sodipodi:namedview
     pagecolor="#ffffff"
     bordercolor="#666666"
     borderopacity="1"
     objecttolerance="10"
     gridtolerance="10"
     guidetolerance="10"
     inkscape:pageopacity="0"
     inkscape:pageshadow="2"
     inkscape:window-width="1440"
     inkscape:window-height="851"
     id="namedview5292"
     showgrid="true"
     inkscape:snap-grids="false"
     inkscape:snap-page="true"
     inkscape:zoom="0.81764653"
     inkscape:cx="433.25748"
     inkscape:cy="2.8116251"
     inkscape:window-x="0"
     inkscape:window-y="1"
     inkscape:window-maximized="1"
     inkscape:current-layer="g10"><inkscape:grid
       type="xygrid"
       id="grid5340" /></sodipodi:namedview><metadata
     id="metadata8"><rdf:RDF><cc:Work
         rdf:about=""><dc:format>image/svg+xml</dc:format><dc:type
           rdf:resource="http://purl.org/dc/dcmitype/StillImage" /><dc:title></dc:title></cc:Work></rdf:RDF></metadata><defs
     id="defs6"><clipPath
       id="clipPath30"
       clipPathUnits="userSpaceOnUse"><path
         id="path28"
         d="m 0,841.89 595.28,0 L 595.28,0 0,0 Z"
         inkscape:connector-curvature="0" /></clipPath><clipPath
       id="clipPath152"
       clipPathUnits="userSpaceOnUse"><path
         id="path150"
         d="m 180.612,807.135 0,-90.439 13.641,0 0,34.07 7.867,0 c 5.919,0 10.958,2.115 15.121,6.349 l 0,0 c 4.161,4.235 6.244,9.337 6.244,15.304 l 0,0 0,13.134 c 0,6.209 -1.83,11.307 -5.486,15.303 l 0,0 c -3.946,4.188 -9.24,6.279 -15.879,6.279 l 0,0 z m 13.641,-13.931 8.227,0 c 2.357,0 4.248,-0.721 5.668,-2.164 l 0,0 c 1.418,-1.443 2.129,-3.346 2.129,-5.702 l 0,0 0,-13.208 c 0,-2.166 -0.76,-4.018 -2.275,-5.559 l 0,0 c -1.514,-1.539 -3.357,-2.308 -5.522,-2.308 l 0,0 -8.227,0 z"
         inkscape:connector-curvature="0" /></clipPath><linearGradient
       id="linearGradient162"
       spreadMethod="pad"
       gradientTransform="matrix(0,-90.439453,-90.439453,0,202.04834,807.13574)"
       gradientUnits="userSpaceOnUse"
       y2="0"
       x2="1"
       y1="0"
       x1="0"><stop
         id="stop158"
         offset="0"
         style="stop-opacity:1;stop-color:#09aace" /><stop
         id="stop160"
         offset="1"
         style="stop-opacity:1;stop-color:#006980" /></linearGradient><clipPath
       id="clipPath172"
       clipPathUnits="userSpaceOnUse"><path
         id="path170"
         d="m 228.167,807.135 0,-90.439 13.642,0 0,34.07 7.868,0 1.226,0 8.27,-34.07 14.755,0 -10.106,39.483 c 4.859,4.425 7.289,9.839 7.289,16.24 l 0,0 0,13.134 c 0,6.544 -1.563,11.645 -4.689,15.303 l 0,0 c -3.562,4.188 -9.144,6.279 -16.745,6.279 l 0,0 z m 13.642,-13.931 8.227,0 c 5.198,0 7.795,-2.621 7.795,-7.866 l 0,0 0,-13.208 c 0,-2.166 -0.758,-4.018 -2.272,-5.559 l 0,0 c -1.518,-1.539 -3.357,-2.308 -5.523,-2.308 l 0,0 -8.227,0 z"
         inkscape:connector-curvature="0" /></clipPath><linearGradient
       id="linearGradient182"
       spreadMethod="pad"
       gradientTransform="matrix(0,-90.439453,-90.439453,0,251.04736,807.13574)"
       gradientUnits="userSpaceOnUse"
       y2="0"
       x2="1"
       y1="0"
       x1="0"><stop
         id="stop178"
         offset="0"
         style="stop-opacity:1;stop-color:#09aace" /><stop
         id="stop180"
         offset="1"
         style="stop-opacity:1;stop-color:#006980" /></linearGradient><clipPath
       id="clipPath192"
       clipPathUnits="userSpaceOnUse"><path
         id="path190"
         d="m 284.691,801.976 c -4.236,-4.212 -6.352,-9.324 -6.352,-15.34 l 0,0 0,-49.368 c 0,-5.969 2.091,-11.069 6.279,-15.302 l 0,0 c 4.185,-4.236 9.284,-6.353 15.3,-6.353 l 0,0 c 5.967,0 11.069,2.105 15.302,6.317 l 0,0 c 4.234,4.21 6.354,9.321 6.354,15.338 l 0,0 0,49.368 c 0,5.966 -2.107,11.067 -6.317,15.303 l 0,0 c -4.211,4.234 -9.324,6.353 -15.339,6.353 l 0,0 c -5.918,0 -10.995,-2.107 -15.227,-6.316 M 294,731.89 c -1.539,1.517 -2.308,3.357 -2.308,5.523 l 0,0 0,49.512 c 0,2.166 0.769,4.008 2.308,5.523 l 0,0 c 1.539,1.514 3.393,2.274 5.559,2.274 l 0,0 c 2.164,0 4.006,-0.76 5.52,-2.274 l 0,0 c 1.518,-1.515 2.275,-3.357 2.275,-5.523 l 0,0 0,-49.512 c 0,-2.166 -0.757,-4.006 -2.275,-5.523 l 0,0 c -1.514,-1.516 -3.356,-2.272 -5.52,-2.272 l 0,0 c -2.166,0 -4.02,0.756 -5.559,2.272"
         inkscape:connector-curvature="0" /></clipPath><linearGradient
       id="linearGradient202"
       spreadMethod="pad"
       gradientTransform="matrix(0,-92.678711,-92.678711,0,299.95605,808.29199)"
       gradientUnits="userSpaceOnUse"
       y2="0"
       x2="1"
       y1="0"
       x1="0"><stop
         id="stop198"
         offset="0"
         style="stop-opacity:1;stop-color:#09aace" /><stop
         id="stop200"
         offset="1"
         style="stop-opacity:1;stop-color:#006980" /></linearGradient><clipPath
       id="clipPath212"
       clipPathUnits="userSpaceOnUse"><path
         id="path210"
         d="m 363.82,805.892 -11.435,-70.495 -11.351,70.495 -14.298,0 16.168,-90.438 18.764,0 16.458,90.438 z"
         inkscape:connector-curvature="0" /></clipPath><linearGradient
       id="linearGradient222"
       spreadMethod="pad"
       gradientTransform="matrix(0,90.438477,90.438477,0,352.43164,715.4541)"
       gradientUnits="userSpaceOnUse"
       y2="0"
       x2="1"
       y1="0"
       x1="0"><stop
         id="stop218"
         offset="0"
         style="stop-opacity:1;stop-color:#414142" /><stop
         id="stop220"
         offset="1"
         style="stop-opacity:1;stop-color:#808285" /></linearGradient><clipPath
       id="clipPath232"
       clipPathUnits="userSpaceOnUse"><path
         id="path230"
         d="m 386.403,800.733 c -4.235,-4.212 -6.352,-9.323 -6.352,-15.34 l 0,0 0,-49.367 c 0,-5.969 2.093,-11.069 6.28,-15.302 l 0,0 c 4.184,-4.237 9.286,-6.354 15.301,-6.354 l 0,0 c 5.965,0 11.069,2.106 15.302,6.318 l 0,0 c 4.234,4.209 6.353,9.321 6.353,15.338 l 0,0 0,49.367 c 0,5.967 -2.108,11.066 -6.316,15.304 l 0,0 c -4.212,4.232 -9.324,6.353 -15.339,6.353 l 0,0 c -5.918,0 -10.994,-2.108 -15.229,-6.317 m 9.311,-70.086 c -1.54,1.517 -2.31,3.357 -2.31,5.521 l 0,0 0,49.515 c 0,2.163 0.77,4.008 2.31,5.521 l 0,0 c 1.538,1.515 3.394,2.276 5.558,2.276 l 0,0 c 2.166,0 4.005,-0.761 5.52,-2.276 l 0,0 c 1.517,-1.513 2.274,-3.358 2.274,-5.521 l 0,0 0,-49.515 c 0,-2.164 -0.757,-4.004 -2.274,-5.521 l 0,0 c -1.515,-1.516 -3.354,-2.273 -5.52,-2.273 l 0,0 c -2.164,0 -4.02,0.757 -5.558,2.273"
         inkscape:connector-curvature="0" /></clipPath><linearGradient
       id="linearGradient242"
       spreadMethod="pad"
       gradientTransform="matrix(0,92.679687,92.679687,0,401.66895,714.37012)"
       gradientUnits="userSpaceOnUse"
       y2="0"
       x2="1"
       y1="0"
       x1="0"><stop
         id="stop238"
         offset="0"
         style="stop-opacity:1;stop-color:#414142" /><stop
         id="stop240"
         offset="1"
         style="stop-opacity:1;stop-color:#808285" /></linearGradient><clipPath
       id="clipPath252"
       clipPathUnits="userSpaceOnUse"><path
         id="path250"
         d="m 429.124,805.892 0,-90.438 37.17,0 0,13.568 -23.529,0 0,76.87 z"
         inkscape:connector-curvature="0" /></clipPath><linearGradient
       id="linearGradient262"
       spreadMethod="pad"
       gradientTransform="matrix(0,90.438477,90.438477,0,447.70898,715.4541)"
       gradientUnits="userSpaceOnUse"
       y2="0"
       x2="1"
       y1="0"
       x1="0"><stop
         id="stop258"
         offset="0"
         style="stop-opacity:1;stop-color:#414142" /><stop
         id="stop260"
         offset="1"
         style="stop-opacity:1;stop-color:#808285" /></linearGradient><clipPath
       id="clipPath272"
       clipPathUnits="userSpaceOnUse"><path
         id="path270"
         d="m 496.836,805.892 -11.433,-70.495 -11.353,70.495 -14.299,0 16.168,-90.438 18.767,0 16.456,90.438 z"
         inkscape:connector-curvature="0" /></clipPath><linearGradient
       id="linearGradient282"
       spreadMethod="pad"
       gradientTransform="matrix(0,90.438477,90.438477,0,485.44727,715.4541)"
       gradientUnits="userSpaceOnUse"
       y2="0"
       x2="1"
       y1="0"
       x1="0"><stop
         id="stop278"
         offset="0"
         style="stop-opacity:1;stop-color:#414142" /><stop
         id="stop280"
         offset="1"
         style="stop-opacity:1;stop-color:#808285" /></linearGradient><clipPath
       id="clipPath292"
       clipPathUnits="userSpaceOnUse"><path
         id="path290"
         d="m 514.94,805.966 0,-90.512 38.833,0 0,13.714 -25.19,0 0,24.686 18.405,0 0,13.711 -18.405,0 0,24.686 25.19,0 0,13.715 z"
         inkscape:connector-curvature="0" /></clipPath><linearGradient
       id="linearGradient302"
       spreadMethod="pad"
       gradientTransform="matrix(0,90.511719,90.511719,0,534.35645,715.4541)"
       gradientUnits="userSpaceOnUse"
       y2="0"
       x2="1"
       y1="0"
       x1="0"><stop
         id="stop298"
         offset="0"
         style="stop-opacity:1;stop-color:#414142" /><stop
         id="stop300"
         offset="1"
         style="stop-opacity:1;stop-color:#808285" /></linearGradient><clipPath
       id="clipPath312"
       clipPathUnits="userSpaceOnUse"><path
         id="path310"
         d="M 68.181,810.958 C 58.09,810.929 49.505,807.378 42.428,800.304 l 0,0 C 35.24,793.116 31.663,784.472 31.69,774.38 l 0,0 c 0.029,-10.096 3.612,-18.708 10.74,-25.842 l 0,0 3.062,-3.061 16.995,16.995 -3.409,3.408 c -2.585,2.589 -3.879,5.697 -3.879,9.319 l 0,0 c 0,3.625 1.297,6.732 3.882,9.317 l 0,0 c 2.587,2.589 5.709,3.899 9.358,3.924 l 0,0 c 3.655,0.029 6.774,-1.249 9.365,-3.84 l 0,0 31.261,-31.261 -8.805,-8.805 33.875,0 0,33.876 -9.112,-9.112 -30.916,30.919 c -7.158,7.16 -15.76,10.741 -25.801,10.741 l 0,0 c -0.042,0 -0.083,0 -0.125,0"
         inkscape:connector-curvature="0" /></clipPath><linearGradient
       id="linearGradient322"
       spreadMethod="pad"
       gradientTransform="matrix(102.4458,0,0,-102.4458,31.689453,777.74609)"
       gradientUnits="userSpaceOnUse"
       y2="0"
       x2="1"
       y1="0"
       x1="0"><stop
         id="stop318"
         offset="0"
         style="stop-opacity:1;stop-color:#09aace" /><stop
         id="stop320"
         offset="1"
         style="stop-opacity:1;stop-color:#006980" /></linearGradient><clipPath
       id="clipPath332"
       clipPathUnits="userSpaceOnUse"><path
         id="path330"
         d="m 60.545,747.13 0,-33.877 9.111,9.111 30.917,-30.917 c 7.188,-7.191 15.829,-10.773 25.926,-10.743 l 0,0 c 10.09,0.029 18.676,3.582 25.752,10.654 l 0,0 c 7.188,7.19 10.767,15.832 10.739,25.926 l 0,0 c -0.029,10.096 -3.612,18.706 -10.741,25.842 l 0,0 -3.061,3.06 -16.995,-16.993 3.408,-3.409 c 2.586,-2.59 3.88,-5.697 3.88,-9.32 l 0,0 c 0,-3.625 -1.297,-6.73 -3.882,-9.317 l 0,0 c -2.587,-2.587 -5.709,-3.898 -9.358,-3.923 l 0,0 c -3.656,-0.03 -6.775,1.247 -9.365,3.839 l 0,0 -31.262,31.261 8.806,8.806 z"
         inkscape:connector-curvature="0" /></clipPath><linearGradient
       id="linearGradient342"
       spreadMethod="pad"
       gradientTransform="matrix(102.44531,0,0,-102.44531,60.544434,713.91699)"
       gradientUnits="userSpaceOnUse"
       y2="0"
       x2="1"
       y1="0"
       x1="0"><stop
         id="stop338"
         offset="0"
         style="stop-opacity:1;stop-color:#09aace" /><stop
         id="stop340"
         offset="1"
         style="stop-opacity:1;stop-color:#006980" /></linearGradient><clipPath
       id="clipPath352"
       clipPathUnits="userSpaceOnUse"><path
         id="path350"
         d="m 126.06,811.273 c -10.096,-0.03 -18.705,-3.612 -25.841,-10.741 l 0,0 -3.06,-3.061 16.993,-16.996 3.41,3.409 c 2.588,2.585 5.697,3.88 9.319,3.88 l 0,0 c 3.624,0 6.731,-1.298 9.316,-3.882 l 0,0 c 2.588,-2.588 3.899,-5.71 3.925,-9.357 l 0,0 c 0.03,-3.657 -1.249,-6.776 -3.839,-9.367 l 0,0 -31.262,-31.26 -8.806,8.805 0,-33.876 33.876,0 -9.111,9.111 30.917,30.919 c 7.192,7.187 10.773,15.829 10.743,25.923 l 0,0 c -0.029,10.092 -3.581,18.678 -10.654,25.754 l 0,0 c -7.161,7.161 -15.768,10.738 -25.812,10.739 l 0,0 c -0.039,0 -0.076,0 -0.114,0"
         inkscape:connector-curvature="0" /></clipPath><linearGradient
       id="linearGradient362"
       spreadMethod="pad"
       gradientTransform="matrix(66.424316,0,0,-66.424316,96.21582,760.0498)"
       gradientUnits="userSpaceOnUse"
       y2="0"
       x2="1"
       y1="0"
       x1="0"><stop
         id="stop358"
         offset="0"
         style="stop-opacity:1;stop-color:#414142" /><stop
         id="stop360"
         offset="1"
         style="stop-opacity:1;stop-color:#808285" /></linearGradient><clipPath
       id="clipPath372"
       clipPathUnits="userSpaceOnUse"><path
         id="path370"
         d="m 64.551,783.462 9.11,-9.111 -30.917,-30.919 c -7.19,-7.186 -10.771,-15.828 -10.742,-25.923 l 0,0 c 0.029,-10.092 3.58,-18.676 10.654,-25.754 l 0,0 c 7.188,-7.188 15.831,-10.765 25.925,-10.739 l 0,0 c 10.096,0.03 18.706,3.612 25.841,10.741 l 0,0 3.062,3.062 -16.995,16.995 -3.408,-3.409 c -2.589,-2.585 -5.698,-3.879 -9.32,-3.879 l 0,0 c -3.624,0 -6.732,1.297 -9.316,3.881 l 0,0 c -2.588,2.588 -3.899,5.709 -3.926,9.357 l 0,0 c -0.029,3.657 1.25,6.776 3.841,9.368 l 0,0 31.261,31.259 8.806,-8.804 0,33.875 z"
         inkscape:connector-curvature="0" /></clipPath><linearGradient
       id="linearGradient382"
       spreadMethod="pad"
       gradientTransform="matrix(66.424316,0,0,-66.424316,32.001953,732.23926)"
       gradientUnits="userSpaceOnUse"
       y2="0"
       x2="1"
       y1="0"
       x1="0"><stop
         id="stop378"
         offset="0"
         style="stop-opacity:1;stop-color:#414142" /><stop
         id="stop380"
         offset="1"
         style="stop-opacity:1;stop-color:#808285" /></linearGradient><clipPath
       id="clipPath392"
       clipPathUnits="userSpaceOnUse"><path
         id="path390"
         d="m 125.023,769.298 -3.693,3.694 -16.836,-15.082 4.571,-4.571 -8.805,-8.805 33.875,0 0,33.876 z"
         inkscape:connector-curvature="0" /></clipPath><linearGradient
       id="linearGradient402"
       spreadMethod="pad"
       gradientTransform="matrix(102.4458,0,0,-102.4458,31.689453,777.74609)"
       gradientUnits="userSpaceOnUse"
       y2="0"
       x2="1"
       y1="0"
       x1="0"><stop
         id="stop398"
         offset="0"
         style="stop-opacity:1;stop-color:#09aace" /><stop
         id="stop400"
         offset="1"
         style="stop-opacity:1;stop-color:#006980" /></linearGradient><clipPath
       id="clipPath412"
       clipPathUnits="userSpaceOnUse"><path
         id="path410"
         d="m 60.545,747.13 0,-33.877 9.111,9.111 3.345,-3.346 14.759,17.161 -2.146,2.145 8.806,8.806 z"
         inkscape:connector-curvature="0" /></clipPath><linearGradient
       id="linearGradient422"
       spreadMethod="pad"
       gradientTransform="matrix(102.44531,0,0,-102.44531,60.544434,713.91699)"
       gradientUnits="userSpaceOnUse"
       y2="0"
       x2="1"
       y1="0"
       x1="0"><stop
         id="stop418"
         offset="0"
         style="stop-opacity:1;stop-color:#09aace" /><stop
         id="stop420"
         offset="1"
         style="stop-opacity:1;stop-color:#006980" /></linearGradient><clipPath
       id="clipPath432"
       clipPathUnits="userSpaceOnUse"><path
         id="path430"
         d="m 0,841.89 595.28,0 L 595.28,0 0,0 Z"
         inkscape:connector-curvature="0" /></clipPath><clipPath
       id="clipPath602"
       clipPathUnits="userSpaceOnUse"><path
         id="path600"
         d="m 107.214,546.781 -5.409,-12.637 9.788,-1.749 14.386,-12.509 28.773,29.398 -17.514,24.394 z"
         inkscape:connector-curvature="0" /></clipPath><clipPath
       id="clipPath614"
       clipPathUnits="userSpaceOnUse"><path
         id="path612"
         d="m 60.926,542.402 -3.127,-7.506 -5.629,-24.393 5.629,-11.26 10.008,-2.502 8.131,10.634 26.897,31.274 -5.63,4.38 -29.398,3.126 z"
         inkscape:connector-curvature="0" /></clipPath><clipPath
       id="clipPath626"
       clipPathUnits="userSpaceOnUse"><path
         id="path624"
         d="m 0,841.89 595.28,0 L 595.28,0 0,0 Z"
         inkscape:connector-curvature="0" /></clipPath><clipPath
       id="clipPath808"
       clipPathUnits="userSpaceOnUse"><path
         id="path806"
         d="m 107.214,339.612 -5.409,-12.638 9.788,-1.748 14.386,-12.51 28.773,29.398 -17.514,24.395 z"
         inkscape:connector-curvature="0" /></clipPath><clipPath
       id="clipPath820"
       clipPathUnits="userSpaceOnUse"><path
         id="path818"
         d="m 60.926,335.234 -3.127,-7.506 -5.629,-24.395 5.629,-11.259 10.008,-2.502 8.131,10.634 26.897,31.274 -5.63,4.378 -29.398,3.127 z"
         inkscape:connector-curvature="0" /></clipPath><clipPath
       id="clipPath832"
       clipPathUnits="userSpaceOnUse"><path
         id="path830"
         d="m 0,841.89 595.28,0 L 595.28,0 0,0 Z"
         inkscape:connector-curvature="0" /></clipPath><clipPath
       id="clipPath1058"
       clipPathUnits="userSpaceOnUse"><path
         id="path1056"
         d="m 107.214,135.186 -5.409,-12.637 9.788,-1.747 14.386,-12.51 28.773,29.396 -17.514,24.395 z"
         inkscape:connector-curvature="0" /></clipPath><clipPath
       id="clipPath1074"
       clipPathUnits="userSpaceOnUse"><path
         id="path1072"
         d="m 60.926,130.808 -3.127,-7.506 -5.629,-24.393 5.629,-11.26 10.008,-2.502 8.131,10.634 26.897,31.275 -5.63,4.378 -29.398,3.128 z"
         inkscape:connector-curvature="0" /></clipPath><clipPath
       id="clipPath1090"
       clipPathUnits="userSpaceOnUse"><path
         id="path1088"
         d="m 0,841.89 595.28,0 L 595.28,0 0,0 Z"
         inkscape:connector-curvature="0" /></clipPath></defs><g
     transform="matrix(1.3333333,0,0,-1.3333333,0,210.52)"
     id="g10"><g
       id="g146"
       transform="matrix(1.4210589,0,0,1.4210589,-106.8208,-1004.1051)"><g
         clip-path="url(#clipPath152)"
         id="g148"><g
           id="g154"><g
             id="g156"><path
               id="path164"
               style="fill:url(#linearGradient162);stroke:none"
               d="m 180.612,807.135 0,-90.439 13.641,0 0,34.07 7.867,0 c 5.919,0 10.958,2.115 15.121,6.349 l 0,0 c 4.161,4.235 6.244,9.337 6.244,15.304 l 0,0 0,13.134 c 0,6.209 -1.83,11.307 -5.486,15.303 l 0,0 c -3.946,4.188 -9.24,6.279 -15.879,6.279 l 0,0 z m 13.641,-13.931 8.227,0 c 2.357,0 4.248,-0.721 5.668,-2.164 l 0,0 c 1.418,-1.443 2.129,-3.346 2.129,-5.702 l 0,0 0,-13.208 c 0,-2.166 -0.76,-4.018 -2.275,-5.559 l 0,0 c -1.514,-1.539 -3.357,-2.308 -5.522,-2.308 l 0,0 -8.227,0 z"
               inkscape:connector-curvature="0" /></g></g></g></g><g
       id="g166"
       transform="matrix(1.4210589,0,0,1.4210589,-106.8208,-1004.1051)"><g
         clip-path="url(#clipPath172)"
         id="g168"><g
           id="g174"><g
             id="g176"><path
               id="path184"
               style="fill:url(#linearGradient182);stroke:none"
               d="m 228.167,807.135 0,-90.439 13.642,0 0,34.07 7.868,0 1.226,0 8.27,-34.07 14.755,0 -10.106,39.483 c 4.859,4.425 7.289,9.839 7.289,16.24 l 0,0 0,13.134 c 0,6.544 -1.563,11.645 -4.689,15.303 l 0,0 c -3.562,4.188 -9.144,6.279 -16.745,6.279 l 0,0 z m 13.642,-13.931 8.227,0 c 5.198,0 7.795,-2.621 7.795,-7.866 l 0,0 0,-13.208 c 0,-2.166 -0.758,-4.018 -2.272,-5.559 l 0,0 c -1.518,-1.539 -3.357,-2.308 -5.523,-2.308 l 0,0 -8.227,0 z"
               inkscape:connector-curvature="0" /></g></g></g></g><g
       id="g186"
       transform="matrix(1.4210589,0,0,1.4210589,-106.8208,-1004.1051)"><g
         clip-path="url(#clipPath192)"
         id="g188"><g
           id="g194"><g
             id="g196"><path
               id="path204"
               style="fill:url(#linearGradient202);stroke:none"
               d="m 284.691,801.976 c -4.236,-4.212 -6.352,-9.324 -6.352,-15.34 l 0,0 0,-49.368 c 0,-5.969 2.091,-11.069 6.279,-15.302 l 0,0 c 4.185,-4.236 9.284,-6.353 15.3,-6.353 l 0,0 c 5.967,0 11.069,2.105 15.302,6.317 l 0,0 c 4.234,4.21 6.354,9.321 6.354,15.338 l 0,0 0,49.368 c 0,5.966 -2.107,11.067 -6.317,15.303 l 0,0 c -4.211,4.234 -9.324,6.353 -15.339,6.353 l 0,0 c -5.918,0 -10.995,-2.107 -15.227,-6.316 M 294,731.89 c -1.539,1.517 -2.308,3.357 -2.308,5.523 l 0,0 0,49.512 c 0,2.166 0.769,4.008 2.308,5.523 l 0,0 c 1.539,1.514 3.393,2.274 5.559,2.274 l 0,0 c 2.164,0 4.006,-0.76 5.52,-2.274 l 0,0 c 1.518,-1.515 2.275,-3.357 2.275,-5.523 l 0,0 0,-49.512 c 0,-2.166 -0.757,-4.006 -2.275,-5.523 l 0,0 c -1.514,-1.516 -3.356,-2.272 -5.52,-2.272 l 0,0 c -2.166,0 -4.02,0.756 -5.559,2.272"
               inkscape:connector-curvature="0" /></g></g></g></g><g
       id="g206"
       transform="matrix(1.4080445,0,0,1.4080445,-102.63571,-993.58563)"><g
         clip-path="url(#clipPath212)"
         id="g208"><g
           id="g214"><g
             id="g216"><path
               id="path224"
               style="fill:url(#linearGradient222);stroke:none"
               d="m 363.82,805.892 -11.435,-70.495 -11.351,70.495 -14.298,0 16.168,-90.438 18.764,0 16.458,90.438 z"
               inkscape:connector-curvature="0" /></g></g></g></g><g
       id="g226"
       transform="matrix(1.4080445,0,0,1.4080445,-102.63571,-993.58563)"><g
         clip-path="url(#clipPath232)"
         id="g228"><g
           id="g234"><g
             id="g236"><path
               id="path244"
               style="fill:url(#linearGradient242);stroke:none"
               d="m 386.403,800.733 c -4.235,-4.212 -6.352,-9.323 -6.352,-15.34 l 0,0 0,-49.367 c 0,-5.969 2.093,-11.069 6.28,-15.302 l 0,0 c 4.184,-4.237 9.286,-6.354 15.301,-6.354 l 0,0 c 5.965,0 11.069,2.106 15.302,6.318 l 0,0 c 4.234,4.209 6.353,9.321 6.353,15.338 l 0,0 0,49.367 c 0,5.967 -2.108,11.066 -6.316,15.304 l 0,0 c -4.212,4.232 -9.324,6.353 -15.339,6.353 l 0,0 c -5.918,0 -10.994,-2.108 -15.229,-6.317 m 9.311,-70.086 c -1.54,1.517 -2.31,3.357 -2.31,5.521 l 0,0 0,49.515 c 0,2.163 0.77,4.008 2.31,5.521 l 0,0 c 1.538,1.515 3.394,2.276 5.558,2.276 l 0,0 c 2.166,0 4.005,-0.761 5.52,-2.276 l 0,0 c 1.517,-1.513 2.274,-3.358 2.274,-5.521 l 0,0 0,-49.515 c 0,-2.164 -0.757,-4.004 -2.274,-5.521 l 0,0 c -1.515,-1.516 -3.354,-2.273 -5.52,-2.273 l 0,0 c -2.164,0 -4.02,0.757 -5.558,2.273"
               inkscape:connector-curvature="0" /></g></g></g></g><g
       id="g246"
       transform="matrix(1.4080445,0,0,1.4080445,-102.63571,-993.58563)"><g
         clip-path="url(#clipPath252)"
         id="g248"><g
           id="g254"><g
             id="g256"><path
               id="path264"
               style="fill:url(#linearGradient262);stroke:none"
               d="m 429.124,805.892 0,-90.438 37.17,0 0,13.568 -23.529,0 0,76.87 z"
               inkscape:connector-curvature="0" /></g></g></g></g><g
       id="g266"
       transform="matrix(1.4080445,0,0,1.4080445,-102.63571,-993.58563)"><g
         clip-path="url(#clipPath272)"
         id="g268"><g
           id="g274"><g
             id="g276"><path
               id="path284"
               style="fill:url(#linearGradient282);stroke:none"
               d="m 496.836,805.892 -11.433,-70.495 -11.353,70.495 -14.299,0 16.168,-90.438 18.767,0 16.456,90.438 z"
               inkscape:connector-curvature="0" /></g></g></g></g><g
       id="g286"
       transform="matrix(1.4080445,0,0,1.4080445,-102.63571,-993.58563)"><g
         clip-path="url(#clipPath292)"
         id="g288"><g
           id="g294"><g
             id="g296"><path
               id="path304"
               style="fill:url(#linearGradient302);stroke:none"
               d="m 514.94,805.966 0,-90.512 38.833,0 0,13.714 -25.19,0 0,24.686 18.405,0 0,13.711 -18.405,0 0,24.686 25.19,0 0,13.715 z"
               inkscape:connector-curvature="0" /></g></g></g></g><g
       id="g306"
       transform="translate(-25.905578,-666.76653)"><g
         clip-path="url(#clipPath312)"
         id="g308"><g
           id="g314"><g
             id="g316"><path
               id="path324"
               style="fill:url(#linearGradient322);stroke:none"
               d="M 68.181,810.958 C 58.09,810.929 49.505,807.378 42.428,800.304 l 0,0 C 35.24,793.116 31.663,784.472 31.69,774.38 l 0,0 c 0.029,-10.096 3.612,-18.708 10.74,-25.842 l 0,0 3.062,-3.061 16.995,16.995 -3.409,3.408 c -2.585,2.589 -3.879,5.697 -3.879,9.319 l 0,0 c 0,3.625 1.297,6.732 3.882,9.317 l 0,0 c 2.587,2.589 5.709,3.899 9.358,3.924 l 0,0 c 3.655,0.029 6.774,-1.249 9.365,-3.84 l 0,0 31.261,-31.261 -8.805,-8.805 33.875,0 0,33.876 -9.112,-9.112 -30.916,30.919 c -7.158,7.16 -15.76,10.741 -25.801,10.741 l 0,0 c -0.042,0 -0.083,0 -0.125,0"
               inkscape:connector-curvature="0" /></g></g></g></g><g
       id="g326"
       transform="translate(-25.905578,-666.76653)"><g
         clip-path="url(#clipPath332)"
         id="g328"><g
           id="g334"><g
             id="g336"><path
               id="path344"
               style="fill:url(#linearGradient342);stroke:none"
               d="m 60.545,747.13 0,-33.877 9.111,9.111 30.917,-30.917 c 7.188,-7.191 15.829,-10.773 25.926,-10.743 l 0,0 c 10.09,0.029 18.676,3.582 25.752,10.654 l 0,0 c 7.188,7.19 10.767,15.832 10.739,25.926 l 0,0 c -0.029,10.096 -3.612,18.706 -10.741,25.842 l 0,0 -3.061,3.06 -16.995,-16.993 3.408,-3.409 c 2.586,-2.59 3.88,-5.697 3.88,-9.32 l 0,0 c 0,-3.625 -1.297,-6.73 -3.882,-9.317 l 0,0 c -2.587,-2.587 -5.709,-3.898 -9.358,-3.923 l 0,0 c -3.656,-0.03 -6.775,1.247 -9.365,3.839 l 0,0 -31.262,31.261 8.806,8.806 z"
               inkscape:connector-curvature="0" /></g></g></g></g><g
       id="g346"
       transform="translate(-25.905578,-666.76653)"><g
         clip-path="url(#clipPath352)"
         id="g348"><g
           id="g354"><g
             id="g356"><path
               id="path364"
               style="fill:url(#linearGradient362);stroke:none"
               d="m 126.06,811.273 c -10.096,-0.03 -18.705,-3.612 -25.841,-10.741 l 0,0 -3.06,-3.061 16.993,-16.996 3.41,3.409 c 2.588,2.585 5.697,3.88 9.319,3.88 l 0,0 c 3.624,0 6.731,-1.298 9.316,-3.882 l 0,0 c 2.588,-2.588 3.899,-5.71 3.925,-9.357 l 0,0 c 0.03,-3.657 -1.249,-6.776 -3.839,-9.367 l 0,0 -31.262,-31.26 -8.806,8.805 0,-33.876 33.876,0 -9.111,9.111 30.917,30.919 c 7.192,7.187 10.773,15.829 10.743,25.923 l 0,0 c -0.029,10.092 -3.581,18.678 -10.654,25.754 l 0,0 c -7.161,7.161 -15.768,10.738 -25.812,10.739 l 0,0 c -0.039,0 -0.076,0 -0.114,0"
               inkscape:connector-curvature="0" /></g></g></g></g><g
       id="g366"
       transform="translate(-25.905578,-666.76653)"><g
         clip-path="url(#clipPath372)"
         id="g368"><g
           id="g374"><g
             id="g376"><path
               id="path384"
               style="fill:url(#linearGradient382);stroke:none"
               d="m 64.551,783.462 9.11,-9.111 -30.917,-30.919 c -7.19,-7.186 -10.771,-15.828 -10.742,-25.923 l 0,0 c 0.029,-10.092 3.58,-18.676 10.654,-25.754 l 0,0 c 7.188,-7.188 15.831,-10.765 25.925,-10.739 l 0,0 c 10.096,0.03 18.706,3.612 25.841,10.741 l 0,0 3.062,3.062 -16.995,16.995 -3.408,-3.409 c -2.589,-2.585 -5.698,-3.879 -9.32,-3.879 l 0,0 c -3.624,0 -6.732,1.297 -9.316,3.881 l 0,0 c -2.588,2.588 -3.899,5.709 -3.926,9.357 l 0,0 c -0.029,3.657 1.25,6.776 3.841,9.368 l 0,0 31.261,31.259 8.806,-8.804 0,33.875 z"
               inkscape:connector-curvature="0" /></g></g></g></g><g
       id="g386"
       transform="translate(-25.905578,-666.76653)"><g
         clip-path="url(#clipPath392)"
         id="g388"><g
           id="g394"><g
             id="g396"><path
               id="path404"
               style="fill:url(#linearGradient402);stroke:none"
               d="m 125.023,769.298 -3.693,3.694 -16.836,-15.082 4.571,-4.571 -8.805,-8.805 33.875,0 0,33.876 z"
               inkscape:connector-curvature="0" /></g></g></g></g><g
       id="g406"
       transform="translate(-25.905578,-666.76653)"><g
         clip-path="url(#clipPath412)"
         id="g408"><g
           id="g414"><g
             id="g416"><path
               id="path424"
               style="fill:url(#linearGradient422);stroke:none"
               d="m 60.545,747.13 0,-33.877 9.111,9.111 3.345,-3.346 14.759,17.161 -2.146,2.145 8.806,8.806 z"
               inkscape:connector-curvature="0" /></g></g></g></g><flowRoot
       xml:space="preserve"
       id="flowRoot5294"
       style="font-style:normal;font-weight:normal;font-size:40px;line-height:125%;font-family:sans-serif;letter-spacing:0px;word-spacing:0px;fill:#000000;fill-opacity:1;stroke:none;stroke-width:1px;stroke-linecap:butt;stroke-linejoin:miter;stroke-opacity:1"><flowRegion
         id="flowRegion5296"><rect
           id="rect5298"
           width="344.19336"
           height="226.57954"
           x="31.133066"
           y="195.44647" /></flowRegion><flowPara
         id="flowPara5300"></flowPara></flowRoot></g></svg>